<svg xmlns="http://www.w3.org/2000/svg" width="85.67" height="23.33" viewBox="0 0 257 70"><g><g><path fill="#db1623" d="M219.388 65.55l13.401-33.237L221.45.005h10.985l6.23 17.75L245.758.162l.116-.16H257l-13.135 32.566 13.13 37.414c-3.829-.53-7.67-1.037-11.513-1.521l-7.49-21.336-7.88 19.535a980.78 980.78 0 0 0-10.725-1.11zm-8.309-.765v-.001c3.654.32 0 0 0 0zm0-.001c-3.654-.32-7.317-.625-10.98-.908V.002h10.98zm-82.48-3.622c-.715-.003-1.43.008-2.142.008V.002h26.214V10.15h-15.192v17.123h13.19v10.135h-13.19v23.8c-2.956-.023-5.917-.046-8.88-.046 0 0 .714.003 0 0zm-34.091.62h.002zm.002-.001v-51.63H84.245V.005h31.512V10.15h-10.263v51.3c-3.666.09-7.327.2-10.984.33zM.066 69.999H0V.003h10.987l14.029 39.979V.003H35.55v65.775c-4.015.4-8.02.825-12.017 1.275L10.533 30.016v38.596C7.039 69.057 3.547 69.516.066 70zm58.398-59.85V27.27h13.19v10.142h-13.19V53.64c5.046-.38 10.104-.72 15.172-1.016V62.78a935.525 935.525 0 0 0-26.196 1.901V.003h26.217v10.145zM10.533 68.611c3.493-.445 0 0 0 0zM174.432 52.14c5.073.248 10.137.532 15.191.86v10.16a931.654 931.654 0 0 0-26.22-1.34V-.002h11.029z"/></g></g></svg>